{"title":"The Big Bang Theory Season 4 S04 Complete 1080p x265 HEVC JoyBel","uid":11685153,"size":4127399853,"categoryP":"video","categoryS":"hd___tv_shows","magnet":"?xt=urn:btih:b7842450bebacb63658982e6713f9b5cd33f9c58&amp;dn=The+Big+Bang+Theory+Season+4+S04+Complete+1080p+x265+HEVC+JoyBel&amp;tr=udp%3A%2F%2Ftracker.openbittorrent.com%3A80&amp;tr=udp%3A%2F%2Fopen.demonii.com%3A1337&amp;tr=udp%3A%2F%2Ftracker.coppersurfer.tk%3A6969&amp;tr=udp%3A%2F%2Fexodus.desync.com%3A6969","seeders":23,"leechers":12,"uploader":"garumon","files":25,"time":1423287538,"description":"The Big Bang Theory Season 4 Complete, in 1080p in x265 aka HEVC and AAC 5.1 audio all for about 170mb each!\nEncoded using 2 pass, from the Bluray, with the slow setting for the highest quality possible.\n\n\nimage\n\nAny questions, or help playing this file, click on the HEVC banner just above. \nPlease watch before rating or commenting on quality. Thank you KickAss community!\n\nimageimageimageimage\n\n\nEncoding info:\n show spoiler\n\n\nFormat : MPEG-4\nFormat profile : Base Media / Version 2\nCodec ID : mp42\nFile size : 169 MiB\nDuration : 21mn 31s\nOverall bit rate mode : Variable\nOverall bit rate : 1 096 Kbps\nWriting application : HandBrake 0.10.0 2014112200\n\nVideo\nID : 1\nFormat : HEVC\nFormat/Info : High Efficiency Video Coding\nFormat profile : &lt;a class=&quot;__cf_email__&quot; href=&quot;/cdn-cgi/l/email-protection&quot; data-cfemail=&quot;2a674b43446a661e041a&quot;&gt;[email&amp;#160;protected]&lt;/a&gt;&lt;script cf-hash='f9e31' type=&quot;text/javascript&quot;&gt;\n/* &lt;![CDATA[ */!function(){try{var t=&quot;currentScript&quot;in document?document.currentScript:function(){for(var t=document.getElementsByTagName(&quot;script&quot;),e=t.length;e--;)if(t[e].getAttribute(&quot;cf-hash&quot;))return t[e]}();if(t&amp;&amp;t.previousSibling){var e,r,n,i,c=t.previousSibling,a=c.getAttribute(&quot;data-cfemail&quot;);if(a){for(e=&quot;&quot;,r=parseInt(a.substr(0,2),16),n=2;a.length-n;n+=2)i=parseInt(a.substr(n,2),16)^r,e+=String.fromCharCode(i);e=document.createTextNode(e),c.parentNode.replaceChild(e,c)}}}catch(u){}}();/* ]]&gt; */&lt;/script&gt;\nCodec ID : hev1\nCodec ID/Info : High Efficiency Video Coding\nDuration : 21mn 31s\nBit rate : 899 Kbps\nWidth : 1 918 pixels\nHeight : 1 080 pixels\nDisplay aspect ratio : 16:9\nFrame rate mode : Variable\nFrame rate : 23.976 fps\nMinimum frame rate : 23.974 fps\nMaximum frame rate : 23.981 fps\nColor space : YUV\nChroma subsampling : 4:2:0\nBit depth : 8 bits\nBits/(Pixel*Frame) : 0.018\nStream size : 138 MiB (82%)\nWriting library : x265 1.4:[Windows][GCC 4.9.0][64 bit]\nEncoding settings : wpp / ctu=64 / tu-intra-depth=1 / tu-inter-depth=1 / me=1 / subme=2 / merange=57 / no-rect / no-amp / max-merge=2 / temporal-mvp / early-skip / no-fast-cbf / rdpenalty=0 / no-tskip / no-tskip-fast / strong-intra-smoothing / no-lossless / no-cu-lossless / no-constrained-intra / fast-intra / open-gop / interlace=0 / keyint=240 / min-keyint=24 / scenecut=40 / rc-lookahead=15 / bframes=4 / bframe-bias=0 / b-adapt=0 / ref=1 / weightp / no-weightb / aq-mode=2 / aq-strength=1.00 / cbqpoffs=0 / crqpoffs=0 / rd=2 / psy-rd=0.00 / psy-rdoq=0.00 / signhide / lft / sao / no-sao-non-deblock / b-pyramid / no-cutree / rc=2 / pass / bitrate=900 / ratetol=1.0 / qcomp=0.60 / qpmin=0 / qpmax=51 / qpstep=4 / cplxblur=20.0 / qblur=0.5 / ipratio=1.40 / pbratio=1.30\nColor primaries : BT.709\nTransfer characteristics : BT.709\nMatrix coefficients : BT.709\nColor range : Limited\n\nAudio\nID : 2\nFormat : AAC\nFormat/Info : Advanced Audio Codec\nFormat profile : HE-AAC / LC\nCodec ID : 40\nDuration : 21mn 31s\nBit rate mode : Variable\nBit rate : 192 Kbps\nChannel(s) : 2 channels\nChannel(s)_Original : 6 channels\nChannel positions : Front: L C R, Side: L R, LFE\nSampling rate : 48.0 KHz / 24.0 KHz\nCompression mode : Lossy\nStream size : 29.5 MiB (18%)\nTitle : Surround / Surround\nLanguage : English","torrent":{"xt":"urn:btih:b7842450bebacb63658982e6713f9b5cd33f9c58","amp;dn":"The+Big+Bang+Theory+Season+4+S04+Complete+1080p+x265+HEVC+JoyBel","amp;tr":["udp%3A%2F%2Ftracker.openbittorrent.com%3A80","udp%3A%2F%2Fopen.demonii.com%3A1337","udp%3A%2F%2Ftracker.coppersurfer.tk%3A6969","udp%3A%2F%2Fexodus.desync.com%3A6969"],"infoHash":"b7842450bebacb63658982e6713f9b5cd33f9c58","infoHashBuffer":{"type":"Buffer","data":[183,132,36,80,190,186,203,99,101,137,130,230,113,63,155,92,211,63,156,88]},"announce":[],"urlList":[]}}